<?xml version="1.0" encoding="UTF-8"?> <svg xmlns="http://www.w3.org/2000/svg" width="1524" height="766" viewBox="0 0 1524 766" fill="none"><path opacity="0.0416667" d="M1251.84 723.004C1257.93 704.953 1266.55 679.604 1277.14 648.624C1299.37 583.613 1330.24 493.807 1364.49 394.617C1398.75 295.427 1429.89 205.633 1452.56 140.641C1463.36 109.671 1472.24 84.3326 1478.61 66.2933C1472.52 84.3445 1463.89 109.693 1453.3 140.673C1431.08 205.684 1400.21 295.49 1365.95 394.68C1331.7 493.87 1300.55 583.664 1277.89 648.656C1267.08 679.626 1258.21 704.965 1251.84 723.004Z" stroke="#484E5C"></path><path opacity="0.0833333" d="M1274.35 712.228C1279.75 694.65 1287.41 669.942 1296.83 639.734C1316.55 576.448 1343.96 489.025 1374.39 392.466C1404.83 295.907 1432.52 208.495 1452.68 145.226C1462.31 115.026 1470.22 90.3271 1475.9 72.7603C1470.5 90.3377 1462.84 115.046 1453.43 145.254C1433.71 208.54 1406.29 295.963 1375.86 392.522C1345.43 489.081 1317.74 576.493 1297.57 639.762C1287.94 669.962 1280.03 694.661 1274.35 712.228Z" stroke="#484E5C"></path><path opacity="0.125" d="M1296.02 701.355C1300.77 684.257 1307.53 660.201 1315.84 630.78C1333.23 569.235 1357.42 484.216 1384.3 390.312C1411.17 296.408 1435.64 211.398 1453.48 149.868C1462 120.455 1469.01 96.4067 1474.05 79.3178C1469.29 96.4161 1462.54 120.472 1454.22 149.893C1436.84 211.438 1412.64 296.457 1385.77 390.361C1358.89 484.265 1334.42 569.274 1316.59 630.805C1308.06 660.218 1301.05 684.266 1296.02 701.355Z" stroke="#484E5C"></path><path opacity="0.166667" d="M1316.84 690.402C1320.99 673.788 1326.91 650.394 1334.2 621.775C1349.42 561.984 1370.63 479.389 1394.21 388.16C1417.78 296.932 1439.26 214.344 1454.94 154.566C1462.44 125.953 1468.61 102.567 1473.04 85.9607C1468.89 102.575 1462.97 125.969 1455.69 154.588C1440.46 214.379 1419.25 296.974 1395.68 388.203C1372.1 479.431 1350.62 562.019 1334.94 621.797C1327.44 650.409 1321.27 673.796 1316.84 690.402Z" stroke="#484E5C"></path><path opacity="0.208333" d="M1336.82 679.376C1340.42 663.249 1345.56 640.527 1351.9 612.722C1365.13 554.698 1383.58 474.542 1404.11 386.007C1424.64 297.472 1443.36 217.323 1457.04 159.31C1463.59 131.51 1468.99 108.794 1472.87 92.6747C1469.27 108.801 1464.13 131.523 1457.79 159.328C1444.56 217.352 1426.11 297.509 1405.58 386.043C1385.05 474.578 1366.33 554.727 1352.65 612.741C1346.1 640.54 1340.7 663.256 1336.82 679.376Z" stroke="#484E5C"></path><path opacity="0.25" d="M1356 668.287C1359.09 652.651 1363.52 630.609 1368.98 603.63C1380.37 547.382 1396.29 469.679 1414.01 383.854C1431.74 298.029 1447.93 220.332 1459.77 164.094C1465.45 137.119 1470.13 115.081 1473.5 99.4519C1470.41 115.087 1465.99 137.13 1460.52 164.109C1449.13 220.357 1433.22 298.059 1415.49 383.884C1397.76 469.709 1381.57 547.406 1369.73 603.645C1364.05 630.62 1359.37 652.657 1356 668.287Z" stroke="#484E5C"></path><path opacity="0.291667" d="M1374.39 657.145C1377.01 642.004 1380.78 620.648 1385.45 594.503C1395.16 540.041 1408.75 464.804 1423.92 381.702C1439.09 298.6 1452.95 223.368 1463.12 168.913C1468 142.772 1472.02 121.42 1474.93 106.284C1472.3 121.425 1468.53 142.781 1463.87 168.925C1454.16 223.388 1440.56 298.624 1425.4 381.726C1410.23 464.829 1396.36 540.061 1386.2 594.516C1381.32 620.656 1377.29 642.009 1374.39 657.145Z" stroke="#484E5C"></path><path opacity="0.333333" d="M1392.01 645.957C1394.21 631.313 1397.38 610.648 1401.32 585.347C1409.51 532.678 1420.99 459.917 1433.83 379.549C1446.66 299.181 1458.42 226.424 1467.06 173.76C1471.21 148.461 1474.64 127.8 1477.12 113.16C1474.92 127.804 1471.75 148.468 1467.81 173.769C1459.63 226.439 1448.14 299.2 1435.31 379.568C1422.47 459.936 1410.71 532.693 1402.07 585.357C1397.92 610.655 1394.49 631.316 1392.01 645.957Z" stroke="#484E5C"></path><path opacity="0.375" d="M1408.9 634.73C1410.71 620.585 1413.34 600.618 1416.61 576.167C1423.42 525.296 1433 455.019 1443.73 377.395C1454.46 299.771 1464.32 229.496 1471.58 178.63C1475.06 154.181 1477.95 134.216 1480.05 120.073C1478.24 134.218 1475.6 154.186 1472.33 178.637C1465.52 229.508 1455.94 299.784 1445.21 377.409C1434.48 455.033 1424.63 525.307 1417.37 576.174C1413.88 600.623 1410.99 620.588 1408.9 634.73Z" stroke="#484E5C"></path><path opacity="0.416667" d="M1425.06 623.473C1426.53 609.829 1428.68 590.563 1431.36 566.968C1436.93 517.9 1444.79 450.115 1453.64 375.241C1462.48 300.368 1470.62 232.584 1476.64 183.519C1479.54 159.925 1481.94 140.66 1483.69 127.018C1482.22 140.662 1480.08 159.928 1477.4 183.523C1471.83 232.591 1463.96 300.377 1455.12 375.25C1446.28 450.124 1438.13 517.908 1432.11 566.972C1429.22 590.566 1426.81 609.831 1425.06 623.473Z" stroke="#484E5C"></path><path opacity="0.458333" d="M1440.54 612.194C1441.71 599.052 1443.42 580.49 1445.57 557.755C1450.04 510.495 1456.38 445.206 1463.54 373.089C1470.7 300.972 1477.32 235.684 1482.24 188.425C1484.61 165.691 1486.58 147.13 1488.02 133.988C1486.86 147.131 1485.15 165.693 1483 188.427C1478.53 235.687 1472.19 300.977 1465.03 373.093C1457.86 445.21 1451.24 510.499 1446.33 557.758C1443.96 580.492 1441.99 599.053 1440.54 612.194Z" stroke="#484E5C"></path><path opacity="0.5" d="M1455.37 600.894C1456.26 588.255 1457.6 570.4 1459.28 548.529C1462.77 503.079 1467.77 440.29 1473.45 370.935C1479.12 301.579 1484.4 238.79 1488.35 193.34C1490.24 171.47 1491.83 153.615 1493.01 140.976C1492.12 153.615 1490.78 171.47 1489.1 193.34C1485.61 238.79 1480.61 301.58 1474.93 370.935C1469.26 440.29 1463.98 503.079 1460.03 548.529C1458.14 570.4 1456.55 588.255 1455.37 600.894Z" stroke="#484E5C"></path><path opacity="0.541667" d="M1469.58 589.581C1470.23 577.445 1471.23 560.299 1472.51 539.296C1475.15 495.658 1478.98 435.372 1483.36 368.781C1487.74 302.19 1491.84 241.904 1494.94 198.265C1496.42 177.261 1497.68 160.114 1498.62 147.978C1497.96 160.114 1496.96 177.26 1495.69 198.263C1493.05 241.901 1489.22 302.187 1484.84 368.778C1480.46 435.369 1476.36 495.655 1473.26 539.294C1471.77 560.298 1470.52 577.445 1469.58 589.581Z" stroke="#484E5C"></path><path opacity="0.583333" d="M1483.19 578.257C1483.64 566.626 1484.35 550.191 1485.27 530.056C1487.19 488.232 1490 430.451 1493.26 366.627C1496.52 302.803 1499.61 245.02 1501.97 203.194C1503.11 183.059 1504.08 166.622 1504.82 154.99C1504.36 166.621 1503.65 183.056 1502.73 203.19C1500.82 245.014 1498 302.795 1494.74 366.62C1491.48 430.444 1488.39 488.226 1486.03 530.053C1484.89 550.188 1483.92 566.625 1483.19 578.257Z" stroke="#484E5C"></path><path opacity="0.625" d="M1496.25 566.927C1496.53 555.801 1497 540.077 1497.62 520.813C1498.91 480.804 1500.86 425.529 1503.17 364.472C1505.48 303.416 1507.71 248.139 1509.45 208.126C1510.28 188.861 1511.01 173.135 1511.57 162.007C1511.29 173.133 1510.82 188.857 1510.2 208.121C1508.91 248.13 1506.96 303.405 1504.65 364.462C1502.34 425.518 1500.11 480.795 1498.37 520.808C1497.54 540.073 1496.81 555.799 1496.25 566.927Z" stroke="#484E5C"></path><path opacity="0.0416667" d="M271.841 696.004C265.748 677.953 257.122 652.604 246.532 621.624C224.308 556.613 193.436 466.807 159.183 367.617C124.931 268.427 93.7835 178.633 71.1143 113.641C60.3119 82.6707 51.4348 57.3326 45.0645 39.2933C51.1569 57.3445 59.7832 82.6935 70.3735 113.673C92.5974 178.684 123.469 268.49 157.722 367.68C191.974 466.87 223.122 556.664 245.791 621.656C256.593 652.626 265.471 677.965 271.841 696.004Z" stroke="#484E5C"></path><path opacity="0.0833333" d="M249.322 685.228C243.923 667.65 236.263 642.942 226.85 612.734C207.13 549.448 179.716 462.025 149.283 365.466C118.85 268.907 91.1606 181.495 70.9942 118.226C61.3681 88.0259 53.4564 63.3271 47.7787 45.7603C53.1775 63.3377 60.8376 88.0461 70.2507 118.254C89.9712 181.54 117.385 268.963 147.818 365.522C178.251 462.081 205.94 549.493 226.107 612.762C235.733 642.962 243.644 667.661 249.322 685.228Z" stroke="#484E5C"></path><path opacity="0.125" d="M227.66 674.355C222.907 657.257 216.15 633.201 207.837 603.78C190.448 542.235 166.255 457.216 139.379 363.312C112.503 269.408 88.0339 184.398 70.1983 122.868C61.6722 93.4545 54.6622 69.4067 49.63 52.3178C54.3824 69.4161 61.14 93.4723 69.4525 122.893C86.8416 184.438 111.035 269.457 137.911 363.361C164.786 457.265 189.256 542.274 207.092 603.805C215.618 633.218 222.628 657.266 227.66 674.355Z" stroke="#484E5C"></path><path opacity="0.166667" d="M206.84 663.402C202.687 646.788 196.769 623.394 189.481 594.775C174.254 534.984 153.048 452.389 129.472 361.16C105.895 269.932 84.4127 187.344 68.7389 127.566C61.2366 98.9534 55.0653 75.5671 50.6324 58.9607C54.7848 75.5752 60.7029 98.9688 67.9912 127.588C83.2178 187.379 104.424 269.974 128 361.203C151.577 452.431 173.059 535.019 188.733 594.797C196.235 623.409 202.407 646.796 206.84 663.402Z" stroke="#484E5C"></path><path opacity="0.208333" d="M186.854 652.376C183.256 636.249 178.114 613.527 171.775 585.722C158.545 527.698 140.098 447.542 119.569 359.007C99.0396 270.472 80.3155 190.323 66.6384 132.31C60.0844 104.51 54.6895 81.7944 50.8103 65.6747C54.4083 81.8013 59.5495 104.523 65.8889 132.328C79.1184 190.352 97.5657 270.509 118.095 359.043C138.624 447.578 157.348 527.727 171.025 585.741C177.579 613.54 182.974 636.256 186.854 652.376Z" stroke="#484E5C"></path><path opacity="0.25" d="M167.675 641.287C164.587 625.651 160.162 603.609 154.697 576.63C143.303 520.382 127.392 442.679 109.663 356.854C91.9351 271.029 75.7467 193.332 63.9049 137.094C58.225 110.119 53.5453 88.0814 50.1753 72.4519C53.2635 88.0872 57.689 110.13 63.154 137.109C74.5477 193.357 90.459 271.059 108.187 356.884C125.916 442.709 142.104 520.406 153.946 576.645C159.626 603.62 164.305 625.657 167.675 641.287Z" stroke="#484E5C"></path><path opacity="0.291667" d="M149.287 630.145C146.665 615.004 142.895 593.648 138.232 567.503C128.517 513.041 114.925 437.804 99.758 354.702C84.5913 271.6 70.7218 196.368 60.5586 141.913C55.6798 115.772 51.6552 94.42 48.7511 79.2838C51.3729 94.4247 55.1428 115.781 59.8064 141.925C69.5213 196.388 83.1134 271.624 98.2801 354.726C113.447 437.829 127.316 513.061 137.48 567.516C142.358 593.656 146.383 615.009 149.287 630.145Z" stroke="#484E5C"></path><path opacity="0.333333" d="M131.662 618.957C129.465 604.313 126.292 583.648 122.359 558.347C114.17 505.678 102.687 432.917 89.8501 352.549C77.0129 272.181 65.2523 199.424 56.6155 146.76C52.4666 121.461 49.0386 100.8 46.5585 86.16C48.7559 100.804 51.9289 121.468 55.8622 146.769C64.0504 199.439 75.5335 272.2 88.3707 352.568C101.208 432.936 112.968 505.693 121.605 558.357C125.754 583.655 129.182 604.316 131.662 618.957Z" stroke="#484E5C"></path><path opacity="0.375" d="M114.781 607.73C112.967 593.585 110.334 573.618 107.062 549.167C100.254 498.296 90.6764 428.019 79.9445 350.395C69.2125 272.771 59.3577 202.496 52.1004 151.63C48.6122 127.181 45.7241 107.216 43.6272 93.0734C45.4411 107.218 48.0738 127.186 51.3463 151.637C58.1547 202.508 67.7318 272.784 78.4638 350.409C89.1958 428.033 99.0505 498.307 106.308 549.174C109.796 573.623 112.684 593.588 114.781 607.73Z" stroke="#484E5C"></path><path opacity="0.416667" d="M98.6154 596.473C97.1457 582.829 94.9983 563.563 92.3197 539.968C86.7495 490.9 78.8829 423.115 70.0402 348.241C61.1975 273.368 53.0532 205.584 47.0338 156.519C44.1393 132.925 41.7363 113.66 39.9833 100.018C41.453 113.662 43.6004 132.928 46.279 156.523C51.8493 205.591 59.7159 273.377 68.5585 348.25C77.4012 423.124 85.5455 490.908 91.5649 539.972C94.4594 563.566 96.8624 582.831 98.6154 596.473Z" stroke="#484E5C"></path><path opacity="0.458333" d="M83.1332 585.194C81.9701 572.052 80.2551 553.49 78.1059 530.755C73.6381 483.495 67.2945 418.206 60.1341 346.089C52.9737 273.972 46.3523 208.684 41.4353 161.425C39.07 138.691 37.0991 120.13 35.6525 106.988C36.8156 120.131 38.5307 138.693 40.6799 161.427C45.1476 208.687 51.4912 273.977 58.6516 346.093C65.812 418.21 72.4335 483.499 77.3505 530.758C79.7158 553.492 81.6866 572.053 83.1332 585.194Z" stroke="#484E5C"></path><path opacity="0.5" d="M68.3066 573.894C67.4141 561.255 66.0808 543.4 64.3991 521.529C60.9042 476.079 55.9046 413.29 50.2287 343.935C44.5527 274.579 39.2752 211.79 35.3309 166.34C33.433 144.47 31.8438 126.615 30.6676 113.976C31.5601 126.615 32.8934 144.47 34.5751 166.34C38.07 211.79 43.0696 274.58 48.7455 343.935C54.4215 413.29 59.699 476.079 63.6432 521.529C65.5412 543.4 67.1303 561.255 68.3066 573.894Z" stroke="#484E5C"></path><path opacity="0.541667" d="M54.0997 562.581C53.4434 550.445 52.4438 533.299 51.1706 512.296C48.5253 468.658 44.6994 408.372 40.3198 341.781C35.9403 275.19 31.8364 214.904 28.7417 171.265C27.2522 150.261 25.9965 133.114 25.0564 120.978C25.7127 133.114 26.7123 150.26 27.9855 171.263C30.6308 214.901 34.4567 275.187 38.8362 341.778C43.2158 408.369 47.3197 468.655 50.4144 512.294C51.9039 533.298 53.1596 550.445 54.0997 562.581Z" stroke="#484E5C"></path><path opacity="0.583333" d="M40.4884 551.257C40.036 539.626 39.3243 523.191 38.4037 503.056C36.4914 461.232 33.678 403.451 30.4169 339.627C27.1558 275.803 24.0644 218.02 21.7026 176.194C20.5656 156.059 19.5977 139.622 18.8614 127.99C19.3138 139.621 20.0255 156.056 20.9461 176.19C22.8585 218.014 25.6718 275.795 28.9329 339.62C32.1941 403.444 35.2854 461.226 37.6473 503.053C38.7842 523.188 39.7521 539.625 40.4884 551.257Z" stroke="#484E5C"></path><path opacity="0.625" d="M27.4273 539.927C27.1483 528.801 26.6814 513.077 26.0607 493.813C24.7715 453.804 22.819 398.529 20.5088 337.472C18.1986 276.416 15.968 221.139 14.2293 181.126C13.3922 161.861 12.6691 146.135 12.106 135.007C12.3851 146.133 12.852 161.857 13.4727 181.121C14.7618 221.13 16.7143 276.405 19.0246 337.462C21.3348 398.518 23.5654 453.795 25.3041 493.808C26.1412 513.073 26.8643 528.799 27.4273 539.927Z" stroke="#484E5C"></path></svg> 